# xmcd CD database file
#
# Track frame offsets:
#	150
#	145073
#	244970
#
# Disc length: 4214 seconds
#
# Revision: 0
# Processed by: cddbd v1.5.2PL0 Copyright (c) Steve Scherf et al.
# Submitted via: CDex 1.70beta3
#
DISCID=24107403
DTITLE=The Spanish Donkey - Raoul
DYEAR=2015
DGENRE=Jazz
TTITLE0=Raoul
TTITLE1=Behavioral Sink
TTITLE2=Dragon Fly Jones
EXTD=YEAR: 2015
EXTT0=
EXTT1=
EXTT2=
PLAYORDER=
